<svg xmlns="http://www.w3.org/2000/svg" viewBox="0 0 120 120" fill="none">
  <defs>
    <linearGradient id="grad1" x1="0%" y1="0%" x2="100%" y2="100%">
      <stop offset="0%" style="stop-color:#6366f1;stop-opacity:1" />
      <stop offset="100%" style="stop-color:#8b5cf6;stop-opacity:1" />
    </linearGradient>
    <linearGradient id="grad2" x1="0%" y1="0%" x2="100%" y2="100%">
      <stop offset="0%" style="stop-color:#a855f7;stop-opacity:1" />
      <stop offset="100%" style="stop-color:#ec4899;stop-opacity:1" />
    </linearGradient>
  </defs>

  <!-- Background circle -->
  <circle cx="60" cy="60" r="56" fill="url(#grad1)" />

  <!-- Document icon -->
  <rect x="35" y="25" width="40" height="50" rx="4" fill="white" opacity="0.95"/>

  <!-- Document lines -->
  <rect x="42" y="35" width="26" height="3" rx="1.5" fill="#6366f1" opacity="0.6"/>
  <rect x="42" y="43" width="20" height="3" rx="1.5" fill="#6366f1" opacity="0.6"/>
  <rect x="42" y="51" width="24" height="3" rx="1.5" fill="#6366f1" opacity="0.6"/>
  <rect x="42" y="59" width="16" height="3" rx="1.5" fill="#6366f1" opacity="0.6"/>

  <!-- Sync arrows -->
  <g transform="translate(60, 85)">
    <path d="M-18 0 L-8 -6 L-8 -2 L8 -2 L8 -6 L18 0 L8 6 L8 2 L-8 2 L-8 6 Z" fill="url(#grad2)" opacity="0.9"/>
  </g>

  <!-- Connection dots -->
  <circle cx="25" cy="60" r="6" fill="white" opacity="0.8"/>
  <circle cx="95" cy="60" r="6" fill="white" opacity="0.8"/>

  <!-- Connection lines -->
  <line x1="31" y1="60" x2="35" y2="60" stroke="white" stroke-width="2" opacity="0.6"/>
  <line x1="75" y1="60" x2="89" y2="60" stroke="white" stroke-width="2" opacity="0.6"/>
</svg>
